<svg width="312" height="83" viewBox="0 0 312 83" fill="none" xmlns="http://www.w3.org/2000/svg">
<g clip-path="url(#clip0_2737_26)">
<path d="M23.7777 65.4403C19.0703 65.4403 14.9103 64.4321 11.3196 62.3941C7.72884 60.3777 4.94821 57.5889 2.95579 54.0279C0.985263 50.4883 0 46.4125 0 41.8218C0 37.2311 1.00716 33.1552 2.99958 29.6156C4.992 26.0761 7.75074 23.2873 11.2758 21.2494C14.8008 19.2329 18.8295 18.2032 23.3617 18.2032C26.8429 18.2032 30.0177 18.761 32.8421 19.8979C35.6884 21.0349 38.1406 22.6223 40.2206 24.7031C42.3006 26.784 43.8989 29.251 45.0156 32.0826C46.1322 34.9143 46.7015 38.0462 46.7015 41.4571V45.3828H4.88253V36.6519H39.6514L32.7983 38.4109C32.7983 36.4802 32.4261 34.807 31.7036 33.3912C30.9811 31.9753 29.9301 30.9027 28.5945 30.1734C27.2371 29.444 25.6168 29.0579 23.7339 29.0579C21.8509 29.0579 20.2526 29.444 18.8952 30.1948C17.5377 30.9457 16.4648 32.0182 15.7423 33.4126C14.9979 34.807 14.6257 36.4802 14.6257 38.4109V44.9108C14.6257 46.9059 15.0198 48.6435 15.7861 50.1237C16.5524 51.6038 17.6691 52.7622 19.0922 53.556C20.5373 54.3711 22.2451 54.7787 24.2594 54.7787C25.7482 54.7787 27.0619 54.5857 28.2223 54.1781C29.3827 53.7705 30.368 53.2127 31.1562 52.4619C31.9444 51.7326 32.5137 50.8745 32.864 49.8877H46.3949C45.8476 52.9124 44.512 55.5724 42.4101 57.9107C40.3082 60.2275 37.6371 62.0509 34.4185 63.3809C31.2 64.711 27.6531 65.376 23.7996 65.376L23.7777 65.4403Z" fill="#F4F4F4"/>
<path d="M66.9979 65.1829C63.9107 65.1829 61.1958 64.6895 58.8092 63.7242C56.4446 62.7588 54.5835 61.2787 53.248 59.2836C51.9124 57.2886 51.2336 54.8216 51.2336 51.8398C51.2336 49.2656 51.6934 47.1204 52.613 45.4042C53.5326 43.6881 54.8244 42.2723 56.4665 41.1997C58.1305 40.1271 60.0353 39.2904 62.181 38.7327C64.3267 38.1749 66.6256 37.8103 69.0779 37.5957C71.8147 37.3598 74.0042 37.1238 75.6682 36.8449C77.3322 36.5661 78.5145 36.1799 79.237 35.6651C79.9595 35.1502 80.3317 34.4638 80.3317 33.5628V33.3483C80.3317 32.4473 80.069 31.6536 79.5435 30.9671C79.0181 30.2806 78.2736 29.7872 77.3103 29.4011C76.3469 29.0364 75.2084 28.8434 73.9166 28.8434C72.6248 28.8434 71.3549 29.0364 70.3259 29.4226C69.2968 29.8087 68.4867 30.3879 67.8955 31.1602C67.3044 31.9324 66.9541 32.8334 66.8008 33.8417H52.8757C53.1166 30.5595 54.08 27.7708 55.7877 25.4325C57.4955 23.1157 59.904 21.3352 63.0568 20.091C66.2096 18.8468 69.9974 18.2247 74.4421 18.2247C77.792 18.2247 80.7477 18.5679 83.3532 19.2758C85.9368 19.9837 88.1044 20.992 89.8778 22.3434C91.6294 23.6949 92.965 25.3467 93.8627 27.2988C94.7604 29.251 95.2202 31.4605 95.2202 33.9489V64.3463H80.5069V57.9751H80.3317C79.456 59.6269 78.3831 60.9783 77.1351 62.008C75.8652 63.0592 74.3983 63.8314 72.7562 64.3463C71.1141 64.8611 69.1873 65.1185 66.9979 65.1185V65.1829ZM71.5739 55.5724C73.2379 55.5724 74.7486 55.2507 76.1061 54.6286C77.4635 54.0065 78.5364 53.1484 79.3027 52.0329C80.069 50.9388 80.4631 49.6517 80.4631 48.1715V44.0742C80.0471 44.2673 79.5873 44.4604 79.04 44.6105C78.4926 44.7607 77.8795 44.9108 77.1789 45.061C76.4783 45.2112 75.7339 45.3399 74.9019 45.49C74.0917 45.6402 73.1941 45.7904 72.2307 45.962C70.917 46.1551 69.7566 46.4768 68.7275 46.9059C67.6985 47.3349 66.8884 47.8927 66.2753 48.6006C65.6842 49.3085 65.3776 50.1666 65.3776 51.1963C65.3776 52.1187 65.6404 52.891 66.1659 53.556C66.6913 54.221 67.4139 54.7144 68.3334 55.0791C69.253 55.4437 70.3258 55.6153 71.5301 55.6153L71.5739 55.5724Z" fill="#F4F4F4"/>
<path d="M123.092 65.5261C118.823 65.5261 115.035 64.904 111.751 63.6384C108.467 62.3942 105.839 60.5922 103.891 58.2539C101.942 55.9157 100.803 53.1484 100.497 49.9521L115.341 49.9092C115.582 51.6253 116.327 52.9553 117.619 53.9207C118.888 54.886 120.64 55.3794 122.851 55.3794C124.909 55.3794 126.53 55.0147 127.69 54.3068C128.851 53.5989 129.442 52.6764 129.442 51.5395C129.442 50.5527 128.96 49.7375 128.019 49.1154C127.077 48.4933 125.676 48.0428 123.859 47.7211L115.517 46.2623C110.984 45.4686 107.525 43.9455 105.139 41.7145C102.752 39.4835 101.57 36.5661 101.57 32.9621C101.57 30.0018 102.402 27.4275 104.066 25.218C105.73 23.0299 108.094 21.3138 111.203 20.1124C114.312 18.9111 117.991 18.289 122.26 18.289C126.53 18.289 130.296 18.9326 133.426 20.1983C136.557 21.4639 139.01 23.2659 140.761 25.5827C142.513 27.8995 143.432 30.6882 143.52 33.906H129.726C129.726 32.34 129.069 31.0315 127.756 29.9803C126.442 28.9292 124.8 28.3929 122.786 28.3929C120.771 28.3929 119.326 28.779 118.232 29.5298C117.137 30.2807 116.589 31.2031 116.589 32.2971C116.589 33.241 117.027 34.0133 117.881 34.6568C118.735 35.2789 119.961 35.7509 121.56 36.0298L130.843 37.703C135.594 38.5611 139.075 39.9769 141.309 41.9505C143.542 43.9241 144.659 46.6056 144.659 49.9735C144.659 53.084 143.761 55.8084 141.944 58.1467C140.148 60.4849 137.608 62.3084 134.368 63.5955C131.128 64.8826 127.362 65.5476 123.092 65.5476V65.5261Z" fill="#F4F4F4"/>
<path d="M150.417 82.2801V70.8677H156.788C157.839 70.8677 158.671 70.7175 159.284 70.4386C159.897 70.1597 160.401 69.6878 160.795 69.0228C161.189 68.3578 161.561 67.4783 161.955 66.3628L162.7 64.3034L144.987 19.2544H160.685L167.495 40.0842C168.414 42.9158 169.29 45.7475 170.122 48.622C170.954 51.4966 171.742 54.3497 172.531 57.2457H168.261C169.005 54.3711 169.794 51.4966 170.626 48.6006C171.436 45.726 172.29 42.8944 173.209 40.0842L180.106 19.2544H195.717L175.771 70.7604C174.742 73.4633 173.56 75.6729 172.18 77.3676C170.801 79.0623 169.159 80.3065 167.276 81.0788C165.393 81.8725 163.16 82.2586 160.598 82.2586H150.483L150.417 82.2801Z" fill="#F4F4F4"/>
<path d="M204.409 56.9239C204.409 61.6219 200.293 65.4618 195.192 65.4618C194.097 65.4618 193.002 65.2687 192.039 64.9255C194.776 63.1664 196.549 60.249 196.549 56.9239C196.549 53.5989 194.776 50.6814 192.039 48.9224C193.024 48.5791 194.097 48.3861 195.192 48.3861C200.293 48.3861 204.409 52.2045 204.409 56.9239Z" fill="#FF5B00"/>
<path d="M184.989 65.4189C190.079 65.4189 194.206 61.606 194.206 56.9025C194.206 52.199 190.079 48.3861 184.989 48.3861C179.898 48.3861 175.771 52.199 175.771 56.9025C175.771 61.606 179.898 65.4189 184.989 65.4189Z" fill="#0090FF"/>
<path d="M230.092 65.1829C227.005 65.1829 224.29 64.6895 221.903 63.7242C219.539 62.7588 217.678 61.2787 216.342 59.2836C215.006 57.2886 214.328 54.8216 214.328 51.8398C214.328 49.2656 214.787 47.1204 215.707 45.4042C216.627 43.6881 217.918 42.2723 219.56 41.1997C221.224 40.1271 223.129 39.2904 225.275 38.7327C227.421 38.1749 229.72 37.8103 232.172 37.5957C234.909 37.3598 237.098 37.1238 238.762 36.8449C240.426 36.5661 241.608 36.1799 242.331 35.6651C243.054 35.1502 243.426 34.4638 243.426 33.5628V33.3483C243.426 32.4473 243.163 31.6536 242.638 30.9671C242.112 30.2806 241.368 29.7873 240.404 29.4011C239.441 29.0364 238.302 28.8434 237.011 28.8434C235.719 28.8434 234.449 29.0364 233.42 29.4226C232.391 29.8087 231.581 30.3879 230.99 31.1602C230.398 31.9324 230.048 32.8334 229.895 33.8417H215.97C216.211 30.5595 217.174 27.7708 218.882 25.4325C220.59 23.1157 222.998 21.3352 226.151 20.091C229.282 18.8468 233.091 18.2247 237.536 18.2247C240.886 18.2247 243.842 18.5679 246.447 19.2758C249.031 19.9837 251.198 20.992 252.972 22.3434C254.745 23.6949 256.059 25.3467 256.957 27.2988C257.854 29.251 258.314 31.4605 258.314 33.9489V64.3463H243.601V57.9751H243.426C242.55 59.6269 241.477 60.9783 240.229 62.008C238.959 63.0592 237.492 63.8314 235.85 64.3463C234.186 64.8611 232.281 65.1185 230.092 65.1185V65.1829ZM234.668 55.5724C236.332 55.5724 237.843 55.2507 239.2 54.6286C240.558 54.0065 241.63 53.1484 242.397 52.0329C243.163 50.9388 243.557 49.6517 243.557 48.1715V44.0742C243.141 44.2673 242.681 44.4604 242.134 44.6105C241.587 44.7607 240.974 44.9108 240.273 45.061C239.572 45.2112 238.828 45.3399 237.996 45.4901C237.164 45.6402 236.288 45.7904 235.325 45.962C234.011 46.1551 232.851 46.4768 231.822 46.9059C230.792 47.3349 229.982 47.8927 229.369 48.6006C228.778 49.3085 228.472 50.1666 228.472 51.1963C228.472 52.1187 228.734 52.891 229.26 53.556C229.785 54.221 230.508 54.7144 231.427 55.0791C232.347 55.4437 233.42 55.6154 234.624 55.6154L234.668 55.5724Z" fill="#F4F4F4"/>
<path d="M283.822 65.3974C279.815 65.3974 276.312 64.4106 273.312 62.4371C270.313 60.4635 267.992 57.7176 266.35 54.1781C264.707 50.6385 263.875 46.4983 263.875 41.736C263.875 36.9736 264.729 33.0694 266.415 29.5298C268.101 25.9903 270.422 23.223 273.4 21.2279C276.356 19.2544 279.793 18.2676 283.646 18.2676C285.661 18.2676 287.478 18.525 289.12 19.0398C290.762 19.5547 292.229 20.327 293.521 21.3567C294.813 22.3863 295.951 23.7164 296.893 25.3253H296.98V0.719917H312V64.4106H297.134V57.4388H297.09C296.302 59.1764 295.251 60.6351 293.959 61.815C292.645 62.9948 291.134 63.8958 289.449 64.4964C287.741 65.0971 285.88 65.3974 283.843 65.3974H283.822ZM288.003 53.6418C289.886 53.6418 291.55 53.1484 292.996 52.183C294.441 51.2177 295.557 49.8233 296.367 48.0428C297.177 46.2409 297.593 44.16 297.593 41.7574C297.593 39.3548 297.177 37.2954 296.367 35.5364C295.557 33.7773 294.419 32.4258 292.996 31.4605C291.55 30.4952 289.886 30.0018 288.003 30.0018C286.121 30.0018 284.632 30.4737 283.296 31.4176C281.961 32.3615 280.931 33.713 280.187 35.4506C279.443 37.1882 279.092 39.3119 279.092 41.7574C279.092 44.2029 279.443 46.3696 280.165 48.1501C280.888 49.9306 281.895 51.2821 283.252 52.226C284.588 53.1698 286.164 53.6418 288.003 53.6418Z" fill="#F4F4F4"/>
</g>
<defs>
<clipPath id="clip0_2737_26">
<rect width="312" height="81.5602" fill="white" transform="translate(0 0.719917)"/>
</clipPath>
</defs>
</svg>
