<?xml version="1.0" encoding="UTF-8"?>
<svg id="Camada_1" xmlns="http://www.w3.org/2000/svg" viewBox="0 0 144 37.64">
  <defs>
    <style>
      .cls-1 {
        fill: #0090ff;
      }

      .cls-2 {
        fill: #fff;
      }

      .cls-3 {
        fill: #ff5b00;
      }
    </style>
  </defs>
  <path class="cls-2" d="M10.97,29.87c-2.17,0-4.09-.47-5.75-1.41-1.66-.93-2.94-2.22-3.86-3.86-.91-1.63-1.36-3.51-1.36-5.63s.46-4,1.38-5.63c.92-1.63,2.19-2.92,3.82-3.86,1.63-.93,3.49-1.41,5.58-1.41,1.61,0,3.07.26,4.38.78,1.31.52,2.45,1.26,3.41,2.22.96.96,1.7,2.1,2.21,3.41.52,1.31.78,2.75.78,4.33v1.81H2.25v-4.03h16.05l-3.16.81c0-.89-.17-1.66-.51-2.32-.33-.65-.82-1.15-1.43-1.49-.63-.34-1.37-.51-2.24-.51s-1.61.18-2.23.52c-.63.35-1.12.84-1.46,1.49-.34.64-.52,1.42-.52,2.31v3c0,.92.18,1.72.54,2.41.35.68.87,1.22,1.53,1.58.67.38,1.46.56,2.38.56.69,0,1.29-.09,1.83-.28.54-.19.99-.45,1.35-.79.36-.34.63-.73.79-1.19h6.25c-.25,1.4-.87,2.62-1.84,3.7-.97,1.07-2.2,1.91-3.69,2.52-1.49.61-3.12.92-4.9.92v.03Z"/>
  <path class="cls-2" d="M30.92,29.75c-1.42,0-2.68-.23-3.78-.67-1.09-.45-1.95-1.13-2.57-2.05-.62-.92-.93-2.06-.93-3.44,0-1.19.21-2.18.64-2.97.42-.79,1.02-1.45,1.78-1.94.77-.5,1.65-.88,2.64-1.14.99-.26,2.05-.43,3.18-.52,1.26-.11,2.27-.22,3.04-.35.77-.13,1.31-.31,1.65-.54.33-.24.51-.55.51-.97v-.1c0-.42-.12-.78-.36-1.1-.24-.32-.59-.54-1.03-.72-.44-.17-.97-.26-1.57-.26s-1.18.09-1.66.27c-.47.18-.85.45-1.12.8-.27.36-.43.77-.51,1.24h-6.43c.11-1.51.56-2.8,1.34-3.88.79-1.07,1.9-1.89,3.35-2.47,1.46-.57,3.2-.86,5.25-.86,1.55,0,2.91.16,4.11.49,1.19.33,2.19.79,3.01,1.42.81.62,1.42,1.39,1.84,2.29.41.9.63,1.92.63,3.07v14.03h-6.79v-2.94h-.08c-.4.76-.9,1.39-1.48,1.86-.59.49-1.26.84-2.02,1.08s-1.65.36-2.66.36v.03ZM33.03,25.32c.77,0,1.47-.15,2.09-.44.63-.29,1.12-.68,1.48-1.2.35-.5.54-1.1.54-1.78v-1.89c-.19.09-.4.18-.66.25-.25.07-.54.14-.86.21-.32.07-.67.13-1.05.2-.37.07-.79.14-1.23.22-.61.09-1.14.24-1.62.44-.47.2-.85.46-1.13.78-.27.33-.41.72-.41,1.2,0,.43.12.78.36,1.09.24.31.58.53,1,.7.42.17.92.25,1.48.25l.02-.02Z"/>
  <path class="cls-2" d="M56.81,29.91c-1.97,0-3.72-.29-5.23-.87-1.52-.57-2.73-1.41-3.63-2.49-.9-1.08-1.42-2.36-1.57-3.83l6.85-.02c.11.79.45,1.41,1.05,1.85.59.45,1.39.67,2.42.67.95,0,1.7-.17,2.23-.5.54-.33.81-.75.81-1.28,0-.46-.22-.83-.66-1.12-.43-.29-1.08-.5-1.92-.64l-3.85-.67c-2.09-.37-3.69-1.07-4.79-2.1-1.1-1.03-1.65-2.38-1.65-4.04,0-1.37.38-2.55,1.15-3.57.77-1.01,1.86-1.8,3.29-2.36,1.43-.55,3.13-.84,5.1-.84s3.71.3,5.15.88c1.44.58,2.58,1.42,3.39,2.49.81,1.07,1.23,2.36,1.27,3.84h-6.37c0-.72-.3-1.33-.91-1.81-.61-.49-1.36-.73-2.29-.73s-1.6.18-2.1.52c-.51.35-.76.77-.76,1.28,0,.44.2.79.6,1.09.39.29.96.5,1.7.63l4.28.77c2.19.4,3.8,1.05,4.83,1.96s1.55,2.15,1.55,3.7c0,1.44-.41,2.69-1.25,3.77-.83,1.08-2,1.92-3.5,2.51-1.5.59-3.23.9-5.2.9h0Z"/>
  <path class="cls-2" d="M69.42,37.64v-5.27h2.94c.49,0,.87-.07,1.15-.2.28-.13.52-.35.7-.65.18-.31.35-.71.54-1.23l.34-.95-8.18-20.79h7.25l3.14,9.61c.42,1.31.83,2.61,1.21,3.94.38,1.33.75,2.64,1.11,3.98h-1.97c.34-1.33.71-2.65,1.09-3.99.37-1.33.77-2.63,1.19-3.93l3.18-9.61h7.21l-9.21,23.77c-.47,1.25-1.02,2.27-1.66,3.05-.64.78-1.39,1.36-2.26,1.71-.87.37-1.9.54-3.08.54h-4.7Z"/>
  <path class="cls-3" d="M94.34,25.94c0,2.17-1.9,3.94-4.25,3.94-.51,0-1.01-.09-1.46-.25,1.26-.81,2.08-2.16,2.08-3.69s-.82-2.88-2.08-3.69c.45-.16.95-.25,1.46-.25,2.35,0,4.25,1.76,4.25,3.94Z"/>
  <path class="cls-1" d="M85.38,29.86c2.35,0,4.25-1.76,4.25-3.93s-1.9-3.93-4.25-3.93-4.25,1.76-4.25,3.93,1.9,3.93,4.25,3.93Z"/>
  <path class="cls-2" d="M106.2,29.75c-1.42,0-2.68-.23-3.78-.67-1.09-.45-1.95-1.13-2.57-2.05-.62-.92-.93-2.06-.93-3.44,0-1.19.21-2.18.64-2.97.42-.79,1.02-1.45,1.78-1.94.77-.5,1.65-.88,2.64-1.14.99-.26,2.05-.43,3.18-.52,1.26-.11,2.27-.22,3.04-.35.77-.13,1.31-.31,1.65-.54.33-.24.5-.55.5-.97v-.1c0-.42-.12-.78-.36-1.1-.24-.32-.59-.54-1.03-.72-.44-.17-.97-.26-1.57-.26s-1.18.09-1.66.27-.85.45-1.12.8c-.27.36-.43.77-.51,1.24h-6.43c.11-1.51.56-2.8,1.34-3.88.79-1.07,1.9-1.89,3.35-2.47,1.44-.57,3.2-.86,5.26-.86,1.55,0,2.91.16,4.11.49,1.19.33,2.19.79,3.01,1.42.82.62,1.43,1.39,1.84,2.29.42.9.63,1.92.63,3.07v14.03h-6.79v-2.94h-.08c-.4.76-.9,1.39-1.47,1.86-.59.49-1.26.84-2.02,1.08-.77.24-1.65.36-2.66.36v.03ZM108.31,25.32c.77,0,1.47-.15,2.09-.44.63-.29,1.12-.68,1.47-1.2.35-.5.54-1.1.54-1.78v-1.89c-.19.09-.4.18-.66.25-.25.07-.53.14-.86.21-.32.07-.67.13-1.05.2-.38.07-.79.14-1.23.22-.61.09-1.14.24-1.62.44-.48.2-.85.46-1.13.78-.27.33-.42.72-.42,1.2,0,.43.12.78.36,1.09.24.31.58.53,1,.7.42.17.92.25,1.47.25l.02-.02Z"/>
  <path class="cls-2" d="M130.99,29.85c-1.85,0-3.47-.46-4.85-1.37-1.38-.91-2.46-2.18-3.21-3.81-.76-1.63-1.14-3.54-1.14-5.74s.39-4,1.17-5.63c.78-1.63,1.85-2.91,3.22-3.83,1.37-.91,2.95-1.37,4.73-1.37.93,0,1.77.12,2.53.36s1.43.59,2.03,1.07c.6.48,1.12,1.09,1.56,1.83h.04V0h6.93v29.4h-6.86v-3.22h-.02c-.36.8-.85,1.48-1.44,2.02-.61.54-1.3.96-2.08,1.24-.79.28-1.65.42-2.59.42h-.01ZM132.93,24.43c.87,0,1.64-.23,2.3-.67.67-.45,1.18-1.09,1.56-1.91.37-.83.57-1.79.57-2.9s-.19-2.06-.57-2.87c-.37-.81-.9-1.44-1.56-1.88-.67-.45-1.43-.67-2.3-.67s-1.56.22-2.17.65c-.62.44-1.09,1.06-1.43,1.86-.34.8-.51,1.78-.51,2.91s.16,2.13.5,2.95c.33.82.8,1.45,1.42,1.88.62.44,1.34.65,2.19.65Z"/>
</svg>