<svg width="144" height="38" viewBox="0 0 144 38" fill="none" xmlns="http://www.w3.org/2000/svg">
<path d="M10.9743 30.0498C8.80168 30.0498 6.88168 29.5844 5.22442 28.6439C3.56716 27.7132 2.28379 26.4261 1.36421 24.7825C0.454737 23.1489 0 21.2677 0 19.1489C0 17.0301 0.464842 15.149 1.38442 13.5153C2.304 11.8817 3.57726 10.5946 5.20421 9.65397C6.83116 8.72329 8.69053 8.24805 10.7823 8.24805C12.3891 8.24805 13.8543 8.50547 15.1579 9.03022C16.4716 9.55496 17.6034 10.2876 18.5634 11.248C19.5234 12.2084 20.2611 13.347 20.7764 14.6539C21.2918 15.9608 21.5545 17.4064 21.5545 18.9806V20.7925H2.25347V16.7628H18.3006L15.1377 17.5747C15.1377 16.6836 14.9659 15.9113 14.6324 15.2579C14.2989 14.6044 13.8139 14.1094 13.1975 13.7727C12.5709 13.4361 11.8232 13.2579 10.9541 13.2579C10.0851 13.2579 9.34737 13.4361 8.72084 13.7826C8.09432 14.1292 7.59916 14.6242 7.26569 15.2678C6.92211 15.9113 6.75032 16.6836 6.75032 17.5747V20.5746C6.75032 21.4954 6.93221 22.2974 7.2859 22.9806C7.63958 23.6637 8.15495 24.1984 8.81179 24.5647C9.47874 24.9409 10.2669 25.1291 11.1966 25.1291C11.8838 25.1291 12.4901 25.0399 13.0257 24.8518C13.5613 24.6637 14.016 24.4063 14.3798 24.0598C14.7436 23.7231 15.0063 23.3271 15.168 22.8717H21.4131C21.1604 24.2677 20.544 25.4954 19.5739 26.5746C18.6038 27.6439 17.3709 28.4854 15.8855 29.0993C14.4 29.7132 12.7629 30.0201 10.9844 30.0201L10.9743 30.0498Z" fill="#242424"/>
<path d="M30.922 29.9308C29.4972 29.9308 28.2441 29.7031 27.1427 29.2576C26.0513 28.812 25.1923 28.1289 24.5759 27.2081C23.9595 26.2873 23.6462 25.1487 23.6462 23.7725C23.6462 22.5844 23.8585 21.5943 24.2829 20.8022C24.7073 20.0102 25.3035 19.3567 26.0614 18.8617C26.8294 18.3666 27.7086 17.9805 28.6989 17.7231C29.6892 17.4656 30.7502 17.2973 31.882 17.1983C33.1452 17.0894 34.1557 16.9805 34.9237 16.8518C35.6917 16.7231 36.2374 16.5449 36.5709 16.3072C36.9043 16.0696 37.0761 15.7528 37.0761 15.3369V15.2379C37.0761 14.8221 36.9549 14.4558 36.7123 14.1389C36.4698 13.8221 36.1262 13.5944 35.6816 13.4162C35.237 13.2479 34.7115 13.1587 34.1153 13.1587C33.5191 13.1587 32.933 13.2479 32.458 13.4261C31.9831 13.6043 31.6092 13.8716 31.3363 14.228C31.0635 14.5845 30.9018 15.0003 30.8311 15.4657H24.4041C24.5153 13.9508 24.9599 12.6637 25.7481 11.5845C26.5363 10.5152 27.6479 9.69344 29.1031 9.11919C30.5582 8.54494 32.3065 8.25781 34.3578 8.25781C35.9039 8.25781 37.2681 8.41623 38.4707 8.74296C39.6631 9.06968 40.6635 9.53503 41.482 10.1588C42.2905 10.7825 42.9069 11.5449 43.3212 12.4459C43.7355 13.3469 43.9477 14.3667 43.9477 15.5152V29.5447H37.157V26.6041H37.0761C36.6719 27.3665 36.1768 27.9903 35.6008 28.4655C35.0147 28.9507 34.3376 29.3071 33.5797 29.5447C32.8218 29.7823 31.9326 29.9011 30.922 29.9011V29.9308ZM33.034 25.4952C33.802 25.4952 34.4993 25.3467 35.1258 25.0596C35.7523 24.7725 36.2475 24.3764 36.6012 23.8616C36.9549 23.3567 37.1368 22.7626 37.1368 22.0794V20.1884C36.9448 20.2775 36.7326 20.3666 36.4799 20.4359C36.2273 20.5052 35.9443 20.5745 35.621 20.6438C35.2976 20.7131 34.954 20.7725 34.57 20.8418C34.1961 20.9111 33.7818 20.9804 33.3372 21.0597C32.7309 21.1488 32.1953 21.2973 31.7203 21.4953C31.2454 21.6933 30.8715 21.9507 30.5886 22.2775C30.3157 22.6042 30.1742 23.0002 30.1742 23.4755C30.1742 23.9012 30.2955 24.2576 30.538 24.5646C30.7806 24.8715 31.114 25.0992 31.5385 25.2675C31.9629 25.4358 32.458 25.5151 33.0138 25.5151L33.034 25.4952Z" fill="#242424"/>
<path d="M56.8118 30.0889C54.8413 30.0889 53.0931 29.8017 51.5773 29.2176C50.0615 28.6433 48.8489 27.8117 47.9495 26.7325C47.0501 25.6533 46.5247 24.376 46.3832 22.9008L53.2345 22.881C53.3457 23.6731 53.6893 24.2869 54.2855 24.7325C54.8716 25.178 55.68 25.4057 56.7007 25.4057C57.6505 25.4057 58.3983 25.2374 58.9339 24.9107C59.4695 24.584 59.7423 24.1582 59.7423 23.6335C59.7423 23.178 59.52 22.8018 59.0855 22.5147C58.651 22.2276 58.0042 22.0196 57.1655 21.8711L53.3154 21.1979C51.2236 20.8315 49.627 20.1286 48.5255 19.0989C47.424 18.0692 46.8783 16.7227 46.8783 15.0593C46.8783 13.693 47.2623 12.5049 48.0303 11.4851C48.7983 10.4752 49.8897 9.68313 51.3247 9.12868C52.7596 8.57424 54.4573 8.28711 56.4278 8.28711C58.3983 8.28711 60.1364 8.58414 61.5815 9.16829C63.0265 9.75244 64.1583 10.5841 64.9668 11.6534C65.7752 12.7227 66.1996 14.0098 66.24 15.495H59.8737C59.8737 14.7722 59.5705 14.1682 58.9642 13.6831C58.3579 13.1979 57.6 12.9504 56.6703 12.9504C55.7407 12.9504 55.0737 13.1286 54.5684 13.4752C54.0632 13.8217 53.8105 14.2474 53.8105 14.7524C53.8105 15.188 54.0127 15.5445 54.4068 15.8415C54.8009 16.1286 55.3668 16.3464 56.1044 16.4751L60.3891 17.2474C62.5819 17.6434 64.1887 18.2969 65.2194 19.2078C66.2501 20.1187 66.7655 21.3563 66.7655 22.9107C66.7655 24.3463 66.3512 25.6038 65.5124 26.683C64.6838 27.7621 63.5116 28.6037 62.016 29.1978C60.5204 29.7918 58.7823 30.0988 56.8118 30.0988V30.0889Z" fill="#242424"/>
<path d="M69.4232 37.8212V32.5539H72.3639C72.8489 32.5539 73.2329 32.4846 73.5158 32.3559C73.7988 32.2272 74.0312 32.0094 74.2131 31.7025C74.395 31.3955 74.5668 30.9896 74.7487 30.4748L75.0923 29.5243L66.9171 8.73242H74.1626L77.3053 18.3462C77.7297 19.6531 78.134 20.96 78.518 22.2867C78.902 23.6134 79.2657 24.9303 79.6295 26.2669H77.659C78.0026 24.9402 78.3664 23.6134 78.7504 22.2768C79.1243 20.9501 79.5184 19.6432 79.9428 18.3462L83.126 8.73242H90.331L81.1251 32.5044C80.6502 33.752 80.1045 34.7717 79.4678 35.5539C78.8312 36.3361 78.0733 36.9103 77.2043 37.2668C76.3352 37.6331 75.3045 37.8113 74.1222 37.8113H69.4535L69.4232 37.8212Z" fill="#242424"/>
<path d="M94.3427 26.1183C94.3427 28.2866 92.4429 30.0588 90.0883 30.0588C89.5831 30.0588 89.0778 29.9697 88.6332 29.8113C89.8963 28.9994 90.7149 27.6529 90.7149 26.1183C90.7149 24.5837 89.8963 23.2371 88.6332 22.4253C89.0879 22.2668 89.5831 22.1777 90.0883 22.1777C92.4429 22.1777 94.3427 23.9401 94.3427 26.1183Z" fill="#FF5B00"/>
<path d="M85.3793 30.039C87.7289 30.039 89.6336 28.2792 89.6336 26.1084C89.6336 23.9375 87.7289 22.1777 85.3793 22.1777C83.0297 22.1777 81.125 23.9375 81.125 26.1084C81.125 28.2792 83.0297 30.039 85.3793 30.039Z" fill="#0090FF"/>
<path d="M106.196 29.9308C104.771 29.9308 103.518 29.7031 102.417 29.2576C101.325 28.812 100.467 28.1289 99.8501 27.2081C99.2337 26.2873 98.9204 25.1487 98.9204 23.7725C98.9204 22.5844 99.1326 21.5943 99.557 20.8022C99.9815 20.0102 100.578 19.3567 101.336 18.8617C102.104 18.3666 102.983 17.9805 103.973 17.7231C104.963 17.4656 106.024 17.2973 107.156 17.1983C108.419 17.0894 109.43 16.9805 110.198 16.8518C110.966 16.7231 111.512 16.5449 111.845 16.3072C112.179 16.0696 112.35 15.7528 112.35 15.3369V15.2379C112.35 14.8221 112.229 14.4558 111.987 14.1389C111.744 13.8221 111.4 13.5944 110.956 13.4162C110.511 13.2479 109.986 13.1587 109.389 13.1587C108.793 13.1587 108.207 13.2479 107.732 13.4261C107.257 13.6043 106.883 13.8716 106.611 14.228C106.338 14.5845 106.176 15.0003 106.105 15.4657H99.6783C99.7895 13.9508 100.234 12.6637 101.022 11.5845C101.811 10.5152 102.922 9.69344 104.377 9.11919C105.822 8.54494 107.581 8.25781 109.632 8.25781C111.178 8.25781 112.542 8.41623 113.745 8.74296C114.937 9.06968 115.938 9.53503 116.756 10.1588C117.575 10.7825 118.181 11.5449 118.595 12.4459C119.01 13.3469 119.222 14.3667 119.222 15.5152V29.5447H112.431V26.6041H112.35C111.946 27.3665 111.451 27.9903 110.875 28.4655C110.289 28.9507 109.612 29.3071 108.854 29.5447C108.086 29.7823 107.207 29.9011 106.196 29.9011V29.9308ZM108.308 25.4952C109.076 25.4952 109.773 25.3467 110.4 25.0596C111.027 24.7725 111.522 24.3764 111.875 23.8616C112.229 23.3567 112.411 22.7626 112.411 22.0794V20.1884C112.219 20.2775 112.007 20.3666 111.754 20.4359C111.501 20.5052 111.219 20.5745 110.895 20.6438C110.572 20.7131 110.228 20.7725 109.844 20.8418C109.46 20.9111 109.056 20.9804 108.611 21.0597C108.005 21.1488 107.469 21.2973 106.995 21.4953C106.52 21.6933 106.146 21.9507 105.863 22.2775C105.59 22.6042 105.448 23.0002 105.448 23.4755C105.448 23.9012 105.57 24.2576 105.812 24.5646C106.055 24.8715 106.388 25.0992 106.813 25.2675C107.237 25.4358 107.732 25.5151 108.288 25.5151L108.308 25.4952Z" fill="#242424"/>
<path d="M130.994 30.0289C129.145 30.0289 127.528 29.5735 126.144 28.6626C124.76 27.7517 123.688 26.4844 122.93 24.8507C122.173 23.2171 121.789 21.3062 121.789 19.1082C121.789 16.9102 122.183 15.1083 122.961 13.4746C123.739 11.841 124.81 10.5638 126.184 9.64298C127.549 8.7321 129.135 8.27666 130.914 8.27666C131.843 8.27666 132.682 8.39547 133.44 8.63309C134.198 8.87071 134.875 9.22714 135.471 9.70238C136.067 10.1776 136.593 10.7915 137.027 11.534H137.068V0.177734H144V29.5735H137.138V26.3557H137.118C136.754 27.1576 136.269 27.8309 135.673 28.3754C135.067 28.92 134.37 29.3358 133.592 29.6131C132.803 29.8903 131.944 30.0289 131.005 30.0289H130.994ZM132.925 24.6032C133.794 24.6032 134.562 24.3755 135.229 23.9299C135.896 23.4844 136.411 22.8409 136.785 22.0191C137.159 21.1874 137.351 20.227 137.351 19.1181C137.351 18.0092 137.159 17.0587 136.785 16.2469C136.411 15.435 135.885 14.8112 135.229 14.3657C134.562 13.9202 133.794 13.6924 132.925 13.6924C132.056 13.6924 131.368 13.9103 130.752 14.3459C130.136 14.7815 129.661 15.4053 129.317 16.2073C128.973 17.0092 128.812 17.9894 128.812 19.1181C128.812 20.2468 128.973 21.2468 129.307 22.0686C129.64 22.8904 130.105 23.5141 130.732 23.9498C131.348 24.3854 132.076 24.6032 132.925 24.6032Z" fill="#242424"/>
</svg>
