<svg width="32" height="21" viewBox="0 0 32 21" fill="none" xmlns="http://www.w3.org/2000/svg">
<g clip-path="url(#clip0_3638_19265)">
<path d="M6.78115 14.1136C6.78115 15.2143 5.81675 16.114 4.6215 16.114C4.36501 16.114 4.10852 16.0688 3.88281 15.9884C4.52404 15.5762 4.93955 14.8927 4.93955 14.1136C4.93955 13.3346 4.52404 12.6511 3.88281 12.2389C4.11365 12.1585 4.36501 12.1133 4.6215 12.1133C5.81675 12.1133 6.78115 13.0079 6.78115 14.1136Z" fill="#FF5B00"/>
<path d="M2.23093 16.104C3.42367 16.104 4.39057 15.2106 4.39057 14.1086C4.39057 13.0066 3.42367 12.1133 2.23093 12.1133C1.03819 12.1133 0.0712891 13.0066 0.0712891 14.1086C0.0712891 15.2106 1.03819 16.104 2.23093 16.104Z" fill="#0090FF"/>
<path d="M12.7979 16.0489C12.0746 16.0489 11.4385 15.9333 10.8794 15.7071C10.3254 15.4809 9.88935 15.1341 9.57643 14.6667C9.26351 14.1993 9.10449 13.6213 9.10449 12.9227C9.10449 12.3196 9.21222 11.817 9.42767 11.4149C9.64312 11.0128 9.94578 10.6811 10.3305 10.4298C10.7204 10.1785 11.1667 9.98245 11.6694 9.85177C12.1721 9.72109 12.7107 9.63565 13.2853 9.58539C13.9265 9.5301 14.4395 9.47482 14.8293 9.40948C15.2192 9.34414 15.4962 9.25367 15.6655 9.13305C15.8348 9.01242 15.922 8.85159 15.922 8.64049V8.59023C15.922 8.37914 15.8604 8.19318 15.7373 8.03234C15.6142 7.87151 15.4398 7.75591 15.2141 7.66544C14.9884 7.58 14.7216 7.53476 14.419 7.53476C14.1163 7.53476 13.8188 7.58 13.5777 7.67047C13.3366 7.76094 13.1468 7.89664 13.0083 8.07758C12.8698 8.25851 12.7877 8.46961 12.7518 8.70583H9.48923C9.54565 7.93685 9.77137 7.28346 10.1715 6.73562C10.5716 6.19281 11.1359 5.77565 11.8746 5.48414C12.6081 5.19263 13.5007 5.04688 14.5421 5.04688C15.3269 5.04688 16.0195 5.12729 16.6299 5.29315C17.2352 5.45901 17.7431 5.69523 18.1586 6.01187C18.5741 6.32852 18.8819 6.71552 19.0922 7.17289C19.3025 7.63026 19.4102 8.14794 19.4102 8.73096V15.8529H15.963V14.3601H15.922C15.7168 14.7471 15.4654 15.0638 15.173 15.305C14.8755 15.5513 14.5318 15.7322 14.1471 15.8529C13.7572 15.9735 13.3109 16.0338 12.7979 16.0338V16.0489ZM13.8701 13.7972C14.2599 13.7972 14.6139 13.7218 14.9319 13.5761C15.25 13.4303 15.5013 13.2293 15.6809 12.9679C15.8604 12.7116 15.9528 12.41 15.9528 12.0632V11.1033C15.8553 11.1485 15.7476 11.1937 15.6193 11.2289C15.4911 11.2641 15.3474 11.2993 15.1833 11.3345C15.0191 11.3696 14.8447 11.3998 14.6498 11.435C14.4549 11.4702 14.2497 11.5053 14.024 11.5455C13.7162 11.5908 13.4443 11.6662 13.2032 11.7667C12.9621 11.8672 12.7723 11.9979 12.6287 12.1637C12.4902 12.3296 12.4183 12.5306 12.4183 12.7719C12.4183 12.988 12.4799 13.169 12.603 13.3248C12.7261 13.4806 12.8954 13.5962 13.1109 13.6816C13.3263 13.7671 13.5777 13.8073 13.8598 13.8073L13.8701 13.7972Z" fill="#242424"/>
<path d="M25.3861 16.0988C24.4474 16.0988 23.6266 15.8676 22.9238 15.4052C22.2211 14.9428 21.6773 14.2995 21.2926 13.4702C20.9078 12.6409 20.7129 11.6709 20.7129 10.5551C20.7129 9.43932 20.913 8.52458 21.3079 7.69528C21.7029 6.86599 22.2467 6.21763 22.9444 5.75021C23.6369 5.28781 24.4423 5.05661 25.3451 5.05661C25.817 5.05661 26.2428 5.11693 26.6275 5.23755C27.0123 5.35818 27.356 5.53911 27.6586 5.78036C27.9613 6.02161 28.228 6.33323 28.4486 6.71018H28.4691V0.945312H31.9882V15.8676H28.505V14.2342H28.4948C28.3101 14.6413 28.0639 14.983 27.7612 15.2595C27.4534 15.5359 27.0995 15.747 26.7045 15.8877C26.3044 16.0285 25.8683 16.0988 25.3913 16.0988H25.3861ZM26.3659 13.3446C26.8071 13.3446 27.197 13.229 27.5355 13.0028C27.8741 12.7766 28.1357 12.4499 28.3255 12.0328C28.5153 11.6106 28.6128 11.123 28.6128 10.5601C28.6128 9.99721 28.5153 9.51471 28.3255 9.10258C28.1357 8.69044 27.869 8.3738 27.5355 8.14763C27.197 7.92146 26.8071 7.80586 26.3659 7.80586C25.9248 7.80586 25.5759 7.91643 25.263 8.13758C24.9501 8.35872 24.709 8.67536 24.5346 9.08247C24.3602 9.48958 24.2781 9.98716 24.2781 10.5601C24.2781 11.1331 24.3602 11.6407 24.5295 12.0579C24.6987 12.475 24.9347 12.7917 25.2528 13.0128C25.5657 13.234 25.935 13.3446 26.3659 13.3446Z" fill="#242424"/>
</g>
<defs>
<clipPath id="clip0_3638_19265">
<rect width="32" height="19.109" fill="white" transform="translate(0 0.945312)"/>
</clipPath>
</defs>
</svg>
