<?xml version="1.0" encoding="UTF-8"?>
<svg id="Camada_1" data-name="Camada 1" xmlns="http://www.w3.org/2000/svg" viewBox="0 0 1821.66 1210">
  <defs>
    <style>
      .cls-1 {
        fill: #ececec;
      }
    </style>
  </defs>
  <path class="cls-1" d="M1508.53,1013.46c22.08,0,40.89-4.02,56.86-11.36-15.97,7.35-34.78,11.37-56.86,11.37h0Z"/>
  <path class="cls-1" d="M1570.61,999.53c-1.71.9-3.45,1.76-5.22,2.57,1.77-.82,3.51-1.68,5.22-2.57Z"/>
  <path class="cls-1" d="M1578.04,995.22c-1.6,1.02-3.23,2-4.9,2.93,1.67-.94,3.3-1.91,4.9-2.93Z"/>
  <path class="cls-1" d="M1756.28,1072.19c5.55-9.6,10.79-19.54,15.71-29.86-4.92,10.33-10.16,20.28-15.71,29.89-39.78,68.91-117.32,137.78-247.75,137.78v-.02c130.43,0,207.97-68.87,247.75-137.79Z"/>
  <path class="cls-1" d="M1799.97,966.64c1.02-3.71,2.01-7.46,2.97-11.25-.95,3.79-1.94,7.54-2.97,11.25Z"/>
  <path class="cls-1" d="M1802.94,955.39c.95-3.79,1.87-7.63,2.76-11.5-.88,3.87-1.8,7.71-2.76,11.5Z"/>
  <path class="cls-1" d="M1663.48,222.45C1566.18,77.38,1439.04.03,1305.56.03c-79.51,0-158.48,35.47-231.73,99.33-49.5,43.17-95.5,97.65-138.14,155.27-52.51-66.47-101.32-117.13-148.64-155.74C697.3,25.59,611.32,0,524.85,0,375.53,0,245.35,97.24,155.14,236.29,53.47,393.09,0,596.12,0,790.92c0,107.11,21.16,201.13,64.23,272.77,52.78,87.93,137.98,146.28,272.72,146.28,113.58,0,199.87-51.01,300.91-185.55,57.64-76.83,86.85-123.37,202.14-327.83l57.39-101.68c4.74-8.41,9.44-16.73,14.1-24.96,4.61,7.55,9.25,15.23,13.91,23.01l163.37,272.9c54.93,91.86,126.35,194.04,187.39,251.56,79.44,74.95,151.28,92.56,232.37,92.56,130.43,0,207.97-68.87,247.75-137.79,1.39-2.4,2.75-4.82,4.1-7.26.67-1.22,1.34-2.44,2.01-3.67h0c.66-1.24,1.32-2.48,1.98-3.72,2.62-4.98,5.16-10.05,7.62-15.21,8.18-17.2,15.47-35.46,21.77-54.92v-.02c2.19-6.77,4.26-13.68,6.21-20.73v-.02c1.02-3.71,2.01-7.46,2.97-11.25.95-3.79,1.87-7.63,2.76-11.5.59-2.59,1.16-5.19,1.72-7.82v-.02c.32-1.5.64-3.01.95-4.53,8.66-42.38,13.29-89.86,13.29-143.58,0-206.5-51.69-406.62-158.18-565.49ZM740.99,546.35c-57.46,88.25-142.84,229.01-215.33,329.29-90.45,125.12-137.4,137.85-188.71,137.85-39.77,0-78.79-17.95-104.96-60.26l.03-.02c-19.96-32.31-35.22-85.71-35.22-155.26,0-168.64,47.79-344.24,125.9-462.13,55.24-83.43,121.25-137.98,198.97-137.98,96.04,0,156.22,60.06,203.04,109.79,23.38,24.86,55.92,65.85,93.74,119.71l-77.46,119.01ZM1648.08,793.39c0,45.88-4.25,89.5-16.09,125.62-.48,1.45-.96,2.87-1.46,4.29-.5,1.42-1,2.82-1.53,4.22-7.58,20.24-17.8,37.82-31.32,51.71-5.9,6.06-12.43,11.42-19.64,15.99-1.6,1.02-3.23,2-4.9,2.93-.84.47-1.68.93-2.53,1.38-1.71.9-3.45,1.76-5.22,2.57-2,.92-4.04,1.79-6.12,2.6-.56.22-1.12.43-1.69.63-.1.04-.2.08-.3.11-.23.09-.45.18-.68.26-.16.06-.33.12-.49.18-.3.11-.61.22-.92.32-.23.08-.46.16-.69.23-.24.09-.49.17-.73.25-.26.09-.53.18-.79.26-.04.02-.07.03-.11.04-.48.16-.96.31-1.45.45-.1.04-.19.07-.29.09h-.01c-.31.1-.61.2-.92.29-.24.07-.48.13-.72.2-.06.02-.12.04-.18.05-.19.06-.38.11-.57.16-.14.04-.28.08-.42.12-.14.04-.28.08-.42.12-.06.02-.12.04-.18.05-.22.07-.44.13-.66.19-.23.07-.46.13-.7.18-.05.01-.1.03-.15.04-.19.05-.37.1-.56.15-.16.04-.32.08-.48.12-.22.06-.44.11-.67.16h0c-.3.09-.61.16-.92.23-.16.04-.32.07-.48.11-.28.07-.56.12-.84.19-.06.02-.13.03-.19.05-.14.03-.28.06-.43.1-.2.05-.41.09-.62.13-.14.04-.29.07-.43.1-.26.06-.52.11-.79.16-.09.02-.18.03-.27.05-.12.03-.24.05-.36.08-.18.04-.35.07-.53.11-.11.02-.23.05-.34.07-.27.05-.55.1-.82.15h0c-.08.02-.15.04-.22.05-.28.05-.55.1-.83.14-.05,0-.11.02-.16.03-.8.15-1.6.29-2.41.42-.44.08-.89.14-1.34.21-.17.03-.33.05-.5.07-.29.05-.57.09-.86.13-.05.01-.1.02-.14.02-.28.04-.56.08-.85.11-.62.09-1.25.17-1.88.25-1.25.15-2.52.29-3.8.41-5.11.5-10.43.75-15.95.75-44.03,0-77.93-17.49-126.32-76.15-37.63-45.67-101.93-142.53-214.94-330.81l-46.81-78.02c-33.39-55.6-65.08-105.63-95.4-150.62,5.4-8.37,10.78-16.55,16.14-24.51,85.08-126.49,160.78-197.45,254.86-197.45,86.98,0,166.04,57.52,227.03,151.65,85.97,132.72,124.99,318.45,124.99,485.82h0Z"/>
</svg>