<?xml version="1.0" encoding="UTF-8"?>
<svg id="Camada_1" data-name="Camada 1" xmlns="http://www.w3.org/2000/svg" xmlns:xlink="http://www.w3.org/1999/xlink" viewBox="0 0 1821.66 1210">
  <defs>
    <style>
      .cls-1 {
        fill: #0081fb;
      }

      .cls-2 {
        fill: url(#Gradiente_sem_nome_2);
      }

      .cls-3 {
        fill: url(#Gradiente_sem_nome);
      }
    </style>
    <linearGradient id="Gradiente_sem_nome" data-name="Gradiente sem nome" x1="70.8" y1="-409.55" x2="1714.6" y2="-326.53" gradientTransform="translate(340.87 886.14) scale(.76)" gradientUnits="userSpaceOnUse">
      <stop offset="0" stop-color="#0064e1"/>
      <stop offset=".4" stop-color="#0064e1"/>
      <stop offset=".83" stop-color="#0073ee"/>
      <stop offset="1" stop-color="#0082fb"/>
    </linearGradient>
    <linearGradient id="Gradiente_sem_nome_2" data-name="Gradiente sem nome 2" x1="-102.8" y1="-7.32" x2="-102.8" y2="-613.37" gradientTransform="translate(340.87 886.14) scale(.76)" gradientUnits="userSpaceOnUse">
      <stop offset="0" stop-color="#0082fb"/>
      <stop offset="1" stop-color="#0064e0"/>
    </linearGradient>
  </defs>
  <path class="cls-1" d="M196.76,797.94c0,69.56,15.26,122.96,35.22,155.27,26.17,42.32,65.19,60.28,104.97,60.28,51.31,0,98.25-12.74,188.71-137.85,72.49-100.28,157.87-241.04,215.33-329.29l97.3-149.5c67.59-103.83,145.83-219.25,235.53-297.48C1147.08,35.5,1226.05.03,1305.56.03c133.48,0,260.62,77.35,357.92,222.42,106.49,158.87,158.18,359,158.18,565.51,0,122.77-24.2,212.98-65.38,284.25-39.78,68.92-117.32,137.78-247.75,137.78v-196.54c111.69,0,139.55-102.63,139.55-220.08,0-167.37-39.02-353.1-124.99-485.82-61-94.14-140.06-151.66-227.04-151.66-94.08,0-169.78,70.96-254.86,197.45-45.23,67.22-91.67,149.12-143.8,241.55l-57.4,101.68c-115.28,204.46-144.49,251.01-202.14,327.83-101.04,134.54-187.32,185.55-300.9,185.55-134.75,0-219.95-58.35-272.72-146.28C21.16,992.05,0,898.03,0,790.92l196.76,7.03Z"/>
  <path class="cls-3" d="M155.14,236.29C245.35,97.24,375.54,0,524.85,0c86.47,0,172.45,25.59,262.2,98.89,98.19,80.12,202.84,212.13,333.41,429.6l46.81,78.02c113.02,188.28,177.31,285.14,214.94,330.81,48.39,58.66,82.29,76.14,126.32,76.14,111.69,0,139.55-102.63,139.55-220.08l173.58-5.45c0,122.77-24.2,212.98-65.38,284.25-39.78,68.92-117.32,137.78-247.75,137.78-81.09,0-152.92-17.61-232.36-92.56-61.04-57.52-132.47-159.7-187.39-251.55l-163.38-272.91c-81.97-136.96-157.19-239.08-200.68-285.33-46.82-49.74-107-109.79-203.04-109.79-77.72,0-143.74,54.54-198.97,137.97l-167.56-99.52Z"/>
  <path class="cls-2" d="M521.67,197.84c-77.72,0-143.74,54.54-198.97,137.97-78.11,117.89-125.9,293.49-125.9,462.13,0,69.56,15.26,122.96,35.22,155.27l-167.79,110.48C21.16,992.05,0,898.03,0,790.92c0-194.8,53.47-397.83,155.14-554.62C245.35,97.24,375.54,0,524.85,0l-3.17,197.84Z"/>
</svg>