<?xml version="1.0" encoding="UTF-8"?>
<svg id="Camada_1" xmlns="http://www.w3.org/2000/svg" xmlns:xlink="http://www.w3.org/1999/xlink" viewBox="0 0 32 19.11">
  <defs>
    <style>
      .cls-1 {
        fill: #0090ff;
      }

      .cls-2 {
        fill: #fff;
      }

      .cls-3 {
        fill: none;
      }

      .cls-4 {
        fill: #ff5b00;
      }

      .cls-5 {
        clip-path: url(#clippath);
      }
    </style>
    <clipPath id="clippath">
      <rect class="cls-3" y="0" width="32" height="19.11"/>
    </clipPath>
  </defs>
  <g class="cls-5">
    <g>
      <path class="cls-4" d="M6.78,13.17c0,1.1-.96,2-2.16,2-.26,0-.51-.05-.74-.13.64-.41,1.06-1.1,1.06-1.87s-.42-1.46-1.06-1.87c.23-.08.48-.13.74-.13,1.2,0,2.16.89,2.16,2Z"/>
      <path class="cls-1" d="M2.23,15.16c1.19,0,2.16-.89,2.16-2s-.97-2-2.16-2S.07,12.06.07,13.16s.97,2,2.16,2Z"/>
      <path class="cls-2" d="M12.8,15.1c-.72,0-1.36-.12-1.92-.34-.55-.23-.99-.57-1.3-1.04-.31-.47-.47-1.05-.47-1.74,0-.6.11-1.11.32-1.51.22-.4.52-.73.9-.99.39-.25.84-.45,1.34-.58.5-.13,1.04-.22,1.62-.27.64-.06,1.15-.11,1.54-.18.39-.07.67-.16.84-.28.17-.12.26-.28.26-.49v-.05c0-.21-.06-.4-.18-.56-.12-.16-.3-.28-.52-.37-.23-.09-.49-.13-.8-.13s-.6.05-.84.14c-.24.09-.43.23-.57.41-.14.18-.22.39-.26.63h-3.26c.06-.77.28-1.42.68-1.97.4-.54.96-.96,1.7-1.25.73-.29,1.63-.44,2.67-.44.78,0,1.48.08,2.09.25.61.17,1.11.4,1.53.72.42.32.72.7.93,1.16.21.46.32.98.32,1.56v7.12h-3.45v-1.49h-.04c-.21.39-.46.7-.75.94-.3.25-.64.43-1.03.55-.39.12-.84.18-1.35.18v.02ZM13.87,12.85c.39,0,.74-.08,1.06-.22.32-.15.57-.35.75-.61.18-.26.27-.56.27-.9v-.96c-.1.05-.21.09-.33.13-.13.04-.27.07-.44.11-.16.04-.34.07-.53.1-.19.04-.4.07-.63.11-.31.05-.58.12-.82.22-.24.1-.43.23-.57.4-.14.17-.21.37-.21.61,0,.22.06.4.18.55.12.16.29.27.51.36.22.09.47.13.75.13h.01Z"/>
      <path class="cls-2" d="M25.39,15.15c-.94,0-1.76-.23-2.46-.69-.7-.46-1.25-1.11-1.63-1.94-.38-.83-.58-1.8-.58-2.92s.2-2.03.59-2.86c.4-.83.94-1.48,1.64-1.95.69-.46,1.5-.69,2.4-.69.47,0,.9.06,1.28.18.38.12.73.3,1.03.54.3.24.57.55.79.93h.02V0h3.52v14.92h-3.48v-1.63h-.01c-.18.41-.43.75-.73,1.03-.31.28-.66.49-1.06.63-.4.14-.84.21-1.31.21h0ZM26.37,12.4c.44,0,.83-.12,1.17-.34.34-.23.6-.55.79-.97.19-.42.29-.91.29-1.47s-.1-1.05-.29-1.46c-.19-.41-.46-.73-.79-.95-.34-.23-.73-.34-1.17-.34s-.79.11-1.1.33c-.31.22-.55.54-.73.94-.17.41-.26.9-.26,1.48s.08,1.08.25,1.5c.17.42.41.73.72.95.31.22.68.33,1.11.33Z"/>
    </g>
  </g>
</svg>