<?xml version="1.0" encoding="UTF-8"?>
<svg width="192" height="192" viewBox="0 0 192 192" fill="none" xmlns="http://www.w3.org/2000/svg">
  <path d="M96 162C132.451 162 162 132.451 162 96C162 59.5492 132.451 30 96 30C59.5492 30 30 59.5492 30 96C30 132.451 59.5492 162 96 162Z" fill="#1877F2"/>
  <path d="M106.145 96.8182H121.636L124 78.7273H106.145V69.6818C106.145 64.0909 108.509 58.5 116.909 58.5H124V42.9545C122.036 42.5682 116.509 41.7273 110.582 41.7273C98.1455 41.7273 89.7455 49.3409 89.7455 67.8182V78.7273H73.4545V96.8182H89.7455V150.273H106.145V96.8182Z" fill="white"/>
</svg>
