<svg xmlns="http://www.w3.org/2000/svg" xmlns:xlink="http://www.w3.org/1999/xlink" viewBox="0 0 800 800" width="800" height="800" preserveAspectRatio="xMidYMid meet" style="width: 100%; height: 100%; transform: translate3d(0px, 0px, 0px); content-visibility: visible;"><defs><clipPath id="__lottie_element_2"><rect width="800" height="800" x="0" y="0"></rect></clipPath></defs><g clip-path="url(#__lottie_element_2)"><g transform="matrix(1.2999999523162842,0,0,1.2999999523162842,-1469.3475341796875,-603.7783813476562)" opacity="1" style="display: block;"><g opacity="1" transform="matrix(1,0,0,1,1327.95703125,768.5659790039062)"><path fill="rgb(95,168,255)" fill-opacity="1" d=" M0,-37.15250015258789 C20.504465103149414,-37.15250015258789 37.15250015258789,-20.504465103149414 37.15250015258789,0 C37.15250015258789,20.504465103149414 20.504465103149414,37.15250015258789 0,37.15250015258789 C-20.504465103149414,37.15250015258789 -37.15250015258789,20.504465103149414 -37.15250015258789,0 C-37.15250015258789,-20.504465103149414 -20.504465103149414,-37.15250015258789 0,-37.15250015258789z"></path></g></g><g transform="matrix(1.2999999523162842,0,0,1.2999999523162842,-1328.3475341796875,-689.5465698242188)" opacity="1" style="display: block;"><g opacity="1" transform="matrix(1,0,0,1,1327.95703125,768.5659790039062)"><path fill="rgb(65,124,233)" fill-opacity="1" d=" M0,-37.15250015258789 C20.504465103149414,-37.15250015258789 37.15250015258789,-20.504465103149414 37.15250015258789,0 C37.15250015258789,20.504465103149414 20.504465103149414,37.15250015258789 0,37.15250015258789 C-20.504465103149414,37.15250015258789 -37.15250015258789,20.504465103149414 -37.15250015258789,0 C-37.15250015258789,-20.504465103149414 -20.504465103149414,-37.15250015258789 0,-37.15250015258789z"></path></g></g><g transform="matrix(1.2999999523162842,0,0,1.2999999523162842,-1185.3475341796875,-737.303466796875)" opacity="1" style="display: block;"><g opacity="1" transform="matrix(1,0,0,1,1327.95703125,768.5659790039062)"><path fill="rgb(66,73,243)" fill-opacity="1" d=" M0,-37.15250015258789 C20.504465103149414,-37.15250015258789 37.15250015258789,-20.504465103149414 37.15250015258789,0 C37.15250015258789,20.504465103149414 20.504465103149414,37.15250015258789 0,37.15250015258789 C-20.504465103149414,37.15250015258789 -37.15250015258789,20.504465103149414 -37.15250015258789,0 C-37.15250015258789,-20.504465103149414 -20.504465103149414,-37.15250015258789 0,-37.15250015258789z"></path></g></g></g></svg>